<?xml version="1.0" standalone="no"?><!-- Generator: Gravit.io --><svg xmlns="http://www.w3.org/2000/svg" xmlns:xlink="http://www.w3.org/1999/xlink" style="isolation:isolate" viewBox="0 0 512 512" width="512" height="512"><defs><clipPath id="_clipPath_SMwz5dD9XIoIwCxZ9xMBFsIlareb0PZX"><rect width="512" height="512"/></clipPath></defs><g clip-path="url(#_clipPath_SMwz5dD9XIoIwCxZ9xMBFsIlareb0PZX)"><rect x="-50" y="-27" width="612" height="792" transform="matrix(1,0,0,1,0,0)" fill="none"/><path d=" M 441.245 51.137 L 309.505 331.263 L 221.995 145.067 L 265.988 51.375 L 311.645 148.396 L 357.302 51.137 L 441.245 51.137 Z  M 409.142 11.187 L 102.858 11.187 C 65.286 11.187 46.5 29.973 46.5 67.545 L 46.5 444.455 C 46.5 482.027 65.286 500.813 102.858 500.813 L 409.142 500.813 C 446.714 500.813 465.5 482.027 465.5 444.455 L 465.5 67.545 C 465.5 29.973 446.714 11.187 409.142 11.187 Z  M 449.33 67.545 L 449.33 444.455 C 449.33 471.326 436.013 484.643 409.142 484.643 L 102.858 484.643 C 75.987 484.643 62.67 471.326 62.67 444.455 L 62.67 67.545 C 62.67 40.674 75.987 27.357 102.858 27.357 L 409.142 27.357 C 436.013 27.357 449.33 40.674 449.33 67.545 Z  M 341.369 304.392 C 341.369 311.764 343.985 317.946 349.455 323.178 C 354.686 328.647 361.107 331.263 368.478 331.263 C 375.85 331.263 382.033 328.647 387.264 323.178 C 392.734 317.946 395.35 311.764 395.35 304.392 C 395.35 297.02 392.734 290.6 387.264 285.368 C 382.033 279.899 375.85 277.283 368.478 277.283 C 361.107 277.283 354.686 279.899 349.455 285.368 C 343.985 290.6 341.369 297.02 341.369 304.392 Z  M 372.283 292.264 C 373.948 292.978 375.137 293.691 376.088 294.88 C 377.039 295.831 377.515 297.258 377.515 298.923 C 377.515 300.587 377.039 302.014 375.85 303.203 C 374.899 304.154 373.472 304.867 371.332 305.581 L 378.942 316.757 L 372.045 316.757 L 364.674 306.056 L 364.198 306.056 L 364.198 316.757 L 357.778 316.757 L 357.778 291.789 L 364.436 291.789 L 372.283 292.264 Z  M 369.43 296.307 L 365.863 296.307 L 364.198 296.307 L 364.198 301.301 L 365.863 301.301 L 370.381 300.825 C 371.094 300.349 371.332 299.636 371.332 298.685 L 370.856 297.258 L 369.43 296.307 Z  M 368.478 282.514 C 374.423 282.514 379.655 284.655 383.935 288.935 C 387.978 293.215 390.118 298.447 390.118 304.392 C 390.118 310.337 387.978 315.568 383.935 319.611 C 379.655 323.891 374.423 326.031 368.478 326.031 C 362.533 326.031 357.302 323.891 353.022 319.611 C 348.741 315.568 346.601 310.337 346.601 304.392 C 346.601 298.447 348.741 293.215 353.022 288.935 C 357.302 284.655 362.533 282.514 368.478 282.514 Z  M 244.348 242.089 L 202.258 331.263 L 70.518 51.137 L 154.46 51.137 L 244.348 242.089 Z  M 304.986 344.342 L 280.255 428.285 C 278.829 433.278 278.115 436.37 278.115 437.559 C 278.115 438.272 278.353 438.748 278.591 439.223 C 279.066 439.699 279.542 439.937 280.018 439.937 C 280.969 439.937 281.92 439.461 282.633 438.748 C 285.011 436.608 287.627 433.516 290.481 428.998 L 293.334 430.425 C 288.816 437.797 284.06 443.266 279.304 446.357 C 276.213 448.497 272.884 449.686 269.317 449.686 C 266.225 449.686 263.61 448.735 261.707 447.071 C 259.805 445.406 258.854 443.266 258.854 440.65 C 258.854 438.986 259.329 435.894 260.518 431.852 L 280.731 363.128 C 281.92 359.323 282.396 356.945 282.396 355.756 C 282.396 354.567 281.92 353.616 280.731 352.903 C 279.304 351.714 277.164 351.238 274.548 351.476 L 275.262 348.86 L 300.468 344.342 L 304.986 344.342 Z  M 324.724 355.756 C 324.724 354.567 324.248 353.616 323.297 352.903 C 321.87 351.714 319.73 351.238 316.876 351.476 L 317.59 348.86 L 342.796 344.342 L 347.077 344.342 L 322.583 428.285 C 321.157 433.278 320.443 436.37 320.443 437.559 C 320.443 438.272 320.681 438.748 321.157 439.223 L 322.346 439.937 C 323.059 439.937 324.01 439.461 324.961 438.748 C 327.339 436.608 329.955 433.516 332.809 428.998 L 335.662 430.425 C 331.144 437.797 326.388 443.266 321.632 446.357 C 318.541 448.497 315.212 449.686 311.645 449.686 C 308.553 449.686 305.938 448.735 304.035 447.071 C 302.133 445.406 301.182 443.266 301.182 440.65 C 301.182 438.986 301.657 435.894 302.846 431.852 L 323.059 363.128 C 324.248 359.323 324.724 356.945 324.724 355.756 Z  M 259.329 355.518 C 259.329 358.61 258.378 360.988 256.238 363.128 C 254.098 365.268 251.72 366.219 248.628 366.219 C 245.537 366.219 242.921 365.268 240.781 363.128 C 238.641 360.988 237.69 358.61 237.69 355.518 C 237.69 352.427 238.641 349.573 240.781 347.433 C 242.921 345.293 245.537 344.342 248.628 344.342 C 251.72 344.342 254.098 345.293 256.238 347.433 C 258.378 349.573 259.329 352.427 259.329 355.518 Z  M 253.146 378.585 L 237.927 431.614 C 237.214 434.705 236.738 436.608 236.738 437.559 L 237.214 439.223 L 238.641 439.699 C 239.354 439.699 240.305 439.461 241.257 438.748 C 243.397 436.608 246.25 433.278 249.342 428.76 L 251.72 430.187 C 244.348 443.266 236.263 449.686 227.94 449.686 C 224.611 449.686 221.995 448.735 220.093 446.833 C 218.19 445.168 217.239 442.79 217.239 440.175 C 217.239 438.272 217.715 435.894 218.666 433.278 L 228.891 397.609 C 230.08 394.042 230.556 391.426 230.556 389.761 C 230.556 388.81 230.08 387.859 229.129 386.908 C 228.178 385.957 226.751 385.481 225.086 385.481 L 222.47 385.719 L 223.422 382.865 L 248.628 378.585 L 253.146 378.585 Z  M 217.477 354.329 C 217.477 353.14 217.001 352.189 216.05 351.238 C 214.861 350.287 212.483 349.811 209.392 349.573 L 210.105 346.72 L 236.976 346.72 L 236.501 349.573 C 233.885 349.811 231.982 350.763 230.556 351.951 C 228.178 353.616 225.324 356.945 221.757 361.939 L 157.552 449.924 L 153.271 449.924 L 158.265 381.676 L 108.565 449.924 L 104.285 449.924 L 110.943 363.604 L 111.181 357.421 C 111.181 354.805 110.705 352.665 109.516 351.476 C 108.327 350.287 106.187 349.573 103.096 349.573 L 104.285 346.72 L 144.948 346.72 L 144.235 349.573 L 142.095 349.573 C 139.479 349.573 137.101 350.287 135.436 351.951 C 133.772 353.854 132.821 357.183 132.583 361.939 L 128.54 413.066 L 158.978 371.451 L 159.93 361.939 L 160.167 357.183 C 160.167 354.567 159.454 352.665 158.265 351.476 C 156.838 350.287 154.698 349.573 151.607 349.573 L 152.32 346.72 L 193.459 346.72 L 192.746 349.573 C 189.179 349.573 186.325 350.287 184.661 351.951 C 182.996 353.854 181.807 357.183 181.331 361.939 L 177.764 413.066 L 206.776 372.878 C 211.77 365.982 214.861 361.226 216.05 358.848 C 217.001 356.945 217.477 355.518 217.477 354.329 Z  M 329.717 463.479 C 331.382 461.576 333.522 460.625 336.138 460.625 C 339.229 460.625 341.845 462.29 344.461 465.381 C 346.125 467.521 347.552 468.472 348.741 468.472 L 351.833 467.759 C 353.497 467.046 355.637 465.143 358.253 462.29 L 358.491 448.26 L 358.015 430.187 L 356.826 401.651 C 356.351 396.42 355.162 392.615 353.497 390.475 C 352.07 388.81 350.168 388.097 348.028 388.097 L 345.174 388.335 L 345.174 385.243 L 368.003 378.585 C 369.905 380.725 371.094 382.865 371.808 385.005 C 373.234 388.572 374.186 393.566 374.661 399.749 C 375.85 411.877 376.564 424.955 376.801 438.748 C 382.271 431.852 388.216 422.577 395.112 411.163 C 397.252 407.596 398.441 404.267 398.441 401.176 C 398.441 399.273 397.252 397.371 394.636 395.706 L 390.118 391.664 C 389.642 390.713 389.405 389.524 389.405 387.859 C 389.405 385.243 390.356 383.103 392.02 381.438 C 393.685 379.536 395.825 378.585 398.441 378.585 C 401.295 378.585 403.673 379.536 405.813 381.676 C 407.715 383.816 408.666 386.194 408.666 389.048 C 408.666 392.377 407.715 396.42 406.051 400.938 C 404.148 405.218 399.868 412.59 392.972 423.291 C 384.173 436.845 375.375 448.735 367.052 458.723 C 361.582 465.143 357.302 469.899 353.973 472.515 C 350.644 475.369 347.077 477.509 343.51 478.936 C 341.369 480.125 339.229 480.6 337.089 480.6 C 334.473 480.6 332.095 479.649 330.193 477.509 C 328.053 475.369 326.864 473.228 326.864 470.613 C 326.864 467.997 327.815 465.619 329.717 463.479 Z " fill-rule="evenodd" fill="rgb(0,0,0)"/></g></svg>