<svg xmlns="http://www.w3.org/2000/svg" version="1.1" xmlns:xlink="http://www.w3.org/1999/xlink" xmlns:svgjs="http://svgjs.com/svgjs" width="1440" height="560" preserveAspectRatio="none" viewBox="0 0 1440 560"><g mask="url(&quot;#SvgjsMask1000&quot;)" fill="none"><rect width="1440" height="560" x="0" y="0" fill="#1e3266"></rect><path d="M1512 560L0 560 L0 308.95Q23.87 260.82, 72 284.69Q156.1 248.79, 192 332.89Q211.07 279.96, 264 299.03Q290.93 253.96, 336 280.89Q394.44 267.33, 408 325.78Q449.38 295.16, 480 336.55Q553.19 289.74, 600 362.93Q630.79 321.72, 672 352.51Q694.21 302.72, 744 324.93Q759.77 268.7, 816 284.47Q887.5 235.97, 936 307.47Q1029.35 280.82, 1056 374.16Q1109.94 308.1, 1176 362.04Q1206.34 320.38, 1248 350.72Q1283.95 266.67, 1368 302.62Q1396.67 259.3, 1440 287.97Q1500.34 276.31, 1512 336.65z" fill="#182f5d"></path><path d="M1464 560L0 560 L0 447.25Q57.16 384.41, 120 441.58Q142.45 392.03, 192 414.49Q216.31 366.8, 264 391.1Q341.83 348.94, 384 426.77Q393.05 363.81, 456 372.86Q525.52 322.38, 576 391.91Q617.52 361.44, 648 402.96Q693.38 376.34, 720 421.72Q763.53 345.25, 840 388.78Q909.8 338.57, 960 408.37Q993.64 322.01, 1080 355.66Q1157.59 313.25, 1200 390.84Q1228.31 347.14, 1272 375.45Q1331.27 362.72, 1344 421.99Q1374.66 332.65, 1464 363.31z" fill="#25467d"></path><path d="M1536 560L0 560 L0 457.77Q21.31 407.07, 72 428.38Q153.72 390.1, 192 471.82Q221.69 429.51, 264 459.21Q323.73 446.94, 336 506.67Q363.17 413.84, 456 441.01Q501.94 414.94, 528 460.88Q610.5 423.38, 648 505.87Q689.54 475.41, 720 516.94Q740.06 417, 840 437.06Q913.46 390.52, 960 463.98Q1029.8 413.78, 1080 483.59Q1125.63 457.22, 1152 502.85Q1217.33 448.18, 1272 513.5Q1290.28 459.78, 1344 478.06Q1389.15 451.22, 1416 496.37Q1459.15 419.52, 1536 462.68z" fill="#356cb1"></path><path d="M1512 560L0 560 L0 506.25Q43.29 477.54, 72 520.83Q125.28 502.11, 144 555.39Q187.72 527.11, 216 570.82Q235.78 470.61, 336 490.39Q408.89 443.28, 456 516.17Q526.45 514.62, 528 585.07Q542.86 527.93, 600 542.8Q624.53 495.33, 672 519.86Q702.24 478.1, 744 508.34Q810.43 502.77, 816 569.21Q860.76 541.97, 888 586.73Q902.15 528.88, 960 543.04Q976.55 487.59, 1032 504.13Q1084.96 437.09, 1152 490.05Q1220.7 486.75, 1224 555.46Q1235.59 495.05, 1296 506.64Q1338.12 476.75, 1368 518.87Q1429.38 508.25, 1440 569.63Q1460.4 518.04, 1512 538.44z" fill="white"></path></g><defs><mask id="SvgjsMask1000"><rect width="1440" height="560" fill="#ffffff"></rect></mask></defs></svg>