<svg xmlns="http://www.w3.org/2000/svg" version="1.1" xmlns:xlink="http://www.w3.org/1999/xlink" xmlns:svgjs="http://svgjs.com/svgjs" width="1440" height="560" preserveAspectRatio="none" viewBox="0 0 1440 560"><g mask="url(&quot;#SvgjsMask1022&quot;)" fill="none"><rect width="1440" height="560" x="0" y="0" fill="#0e2a47"></rect><path d="M0,376.363C89.723,371.563,185.046,454.04,262.194,407.981C338.917,362.175,319.684,244.228,357.179,163.118C394.918,81.481,493.184,19.918,482.888,-69.429C472.615,-158.581,365.206,-197.725,307.663,-266.591C248.715,-337.138,230.032,-457.501,140.65,-479.009C50.491,-500.704,-23.963,-406.533,-107.62,-366.521C-176.023,-333.805,-256.901,-322.932,-306.171,-265.298C-355.313,-207.814,-352.266,-126.067,-374.874,-53.899C-402.656,34.784,-471.75,116.184,-454.272,207.459C-435.863,303.596,-372.611,402.921,-280.864,437.034C-189.232,471.104,-97.621,381.585,0,376.363" fill="#0b2239"></path><path d="M1440 1181.528C1554.084 1193.713 1641.713 1086.088 1738.083 1023.826 1834.1970000000001 961.729 1957.9279999999999 922.307 2003.612 817.393 2049.175 712.755 1984.7060000000001 596.873 1973.4470000000001 483.302 1961.542 363.209 2023.117 213.644 1935.53 130.62099999999998 1845.968 45.726 1694.07 131.91699999999997 1573.763 104.445 1464.459 79.48599999999999 1379.812-40.13199999999995 1269.25-21.523000000000025 1158.335-2.855000000000018 1095.747 112.88099999999997 1021.528 197.392 946.806 282.476 845.421 360.255 834.945 473.006 824.542 584.974 903.138 683.647 967.8 775.646 1023.371 854.711 1106.923 901.244 1180.211 964.239 1267.594 1039.349 1325.425 1169.29 1440 1181.528" fill="#113255"></path></g><defs><mask id="SvgjsMask1022"><rect width="1440" height="560" fill="#ffffff"></rect></mask></defs></svg>