<svg xmlns="http://www.w3.org/2000/svg" version="1.1" xmlns:xlink="http://www.w3.org/1999/xlink" xmlns:svgjs="http://svgjs.com/svgjs" width="1440" height="560" preserveAspectRatio="none" viewBox="0 0 1440 560"><g mask="url(&quot;#SvgjsMask1001&quot;)" fill="none"><path d="M1082.29 249.44L1093.46 249.44L1093.46 260.61L1082.29 260.61z" stroke="#e73635"></path><path d="M135.62 471.15 a1.21 1.21 0 1 0 2.42 0 a1.21 1.21 0 1 0 -2.42 0z" stroke="#e73635"></path><path d="M710.2 48.11L732.65 48.11L732.65 101.31L710.2 101.31z" fill="#d3b714"></path><path d="M837.13 110.04 a20.92 20.92 0 1 0 41.84 0 a20.92 20.92 0 1 0 -41.84 0z" fill="#037b0b"></path><path d="M1420.42 201.39 a4.36 4.36 0 1 0 8.72 0 a4.36 4.36 0 1 0 -8.72 0z" stroke="#d3b714"></path><path d="M755.82 52.7a8.45 8.45 0 1 0 5.7 15.91z" stroke="#d3b714"></path><path d="M309.97 242.59a38.44 38.44 0 1 0-13.26 75.73z" fill="#d3b714"></path><path d="M428.91 420.65 a11.97 11.97 0 1 0 23.94 0 a11.97 11.97 0 1 0 -23.94 0z" stroke="#037b0b"></path><path d="M763.3 280.64a1.49 1.49 0 1 0 2.79 1.05z" stroke="#d3b714"></path><path d="M1371.84 440.1L1396.96 440.1L1396.96 465.22L1371.84 465.22z" stroke="#037b0b"></path><path d="M1305.54 431.95a18.4 18.4 0 1 0-31.25 19.43z" fill="#d3b714"></path><path d="M900.54 301.02a23.53 23.53 0 1 0 13.37-45.12z" stroke="#037b0b"></path><path d="M965.72 341.68a16.81 16.81 0 1 0-32.06-10.1z" stroke="#037b0b"></path><path d="M683.95 490.51L685.81 490.51L685.81 492.37L683.95 492.37z" stroke="#037b0b"></path><path d="M44 520.99L53.92 520.99L53.92 537.63L44 537.63z" stroke="#e73635"></path><path d="M189.98 312.71L191.74 312.71L191.74 314.47L189.98 314.47z" fill="#d3b714"></path><path d="M1136.52 18.87L1137.67 18.87L1137.67 31.33L1136.52 31.33z" stroke="#e73635"></path><path d="M184.2 10.47L202.46 10.47L202.46 26.43L184.2 26.43z" fill="#037b0b"></path><path d="M1227.62 472.71L1253.74 472.71L1253.74 521.72L1227.62 521.72z" fill="#d3b714"></path><path d="M440.49 128.96L448.9 128.96L448.9 179.18L440.49 179.18z" stroke="#e73635"></path><path d="M214.41 119.61a1.84 1.84 0 1 0 3.52-1.08z" stroke="#d3b714"></path><path d="M49.12 73.98 a3.93 3.93 0 1 0 7.86 0 a3.93 3.93 0 1 0 -7.86 0z" fill="#037b0b"></path><path d="M646.08 290.53a2.93 2.93 0 1 0 4.88 3.26z" fill="#037b0b"></path><path d="M52.76 324.12L80.94 324.12L80.94 336.86L52.76 336.86z" fill="#d3b714"></path><path d="M279.56 416.8a13.1 13.1 0 1 0-24.75-8.59z" stroke="#e73635"></path><path d="M629.94 134.87a5.8 5.8 0 1 0 0.78 11.57z" fill="#d3b714"></path><path d="M344.9 137.78L356.32 137.78L356.32 149.2L344.9 149.2z" fill="#e73635"></path><path d="M1419.18 301.25a54.12 54.12 0 1 0-108.1-5.39z" stroke="#d3b714"></path><path d="M535.23 504.03 a32.5 32.5 0 1 0 65 0 a32.5 32.5 0 1 0 -65 0z" stroke="#037b0b"></path><path d="M1401.18 311.69a49.25 49.25 0 1 0-97.64 12.99z" fill="#037b0b"></path><path d="M1163.58 75.47 a43.42 43.42 0 1 0 86.84 0 a43.42 43.42 0 1 0 -86.84 0z" fill="#e73635"></path><path d="M992.72 191.83a43.48 43.48 0 1 0 30.73 81.34z" stroke="#037b0b"></path><path d="M223.11 356.69L258.14 356.69L258.14 387.56L223.11 387.56z" stroke="#d3b714"></path></g><defs><mask id="SvgjsMask1001"><rect width="1440" height="560" fill="#ffffff"></rect></mask></defs></svg>